<svg fill="#000000" xmlns="http://www.w3.org/2000/svg"  viewBox="0 0 100 100" width="100px" height="100px"><path d="M 29 15 L 34 31 L 34 41 L 38 41 L 38 31 L 43 15 L 39 15 L 36.125 25.375 L 35.875 25.375 L 33 15 L 29 15 z M 48.644531 21.5 C 46.917531 21.5 45.554109 21.973922 44.537109 22.919922 C 43.512109 23.849922 43 25.119313 43 26.695312 L 43 35.306641 C 43 37.040641 43.497234 38.428125 44.490234 39.453125 C 45.491234 40.479125 46.808656 41 48.472656 41 C 50.199656 41 51.546437 40.502953 52.523438 39.501953 C 53.501438 38.500953 53.990234 37.128906 53.990234 35.378906 L 53.990234 26.814453 C 53.990234 25.253453 53.494188 23.976234 52.492188 22.990234 C 51.491188 21.997234 50.212531 21.5 48.644531 21.5 z M 57 22 L 57 38.4375 C 57 39.8525 58.1465 41 59.5625 41 C 61.2065 41 62.917953 39.970844 64.001953 38.714844 L 64.001953 41 L 68.001953 41 L 68.001953 22 L 64 22 L 64 36.203125 C 63.36 36.869125 62.534 37.5 61.875 37.5 C 61.392 37.5 61 37.108 61 36.625 L 61 22 L 57 22 z M 48.5 25 C 49.328 25 50 25.672 50 26.5 L 50 36 C 50 36.828 49.328 37.5 48.5 37.5 C 47.672 37.5 47 36.828 47 36 L 47 26.5 C 47 25.672 47.672 25 48.5 25 z M 49.998047 44 C 45.998047 44 41.089993 44.00015 36.875 44.064453 C 34.767503 44.096603 32.834256 44.143823 31.267578 44.216797 C 29.7009 44.289767 28.54542 44.371361 27.787109 44.535156 C 25.984936 44.924099 24.329643 45.776957 23.052734 47.052734 C 21.77499 48.329346 20.923999 49.987354 20.535156 51.789062 C 20.329838 52.740933 20.222618 54.387791 20.134766 56.623047 C 20.046913 58.858305 20 61.614275 20 64.5 C 20 67.385725 20.04691 70.141572 20.134766 72.376953 C 20.222616 74.612334 20.329744 76.259258 20.535156 77.210938 C 20.924081 79.013029 21.776407 80.670939 23.052734 81.947266 C 24.32929 83.223821 25.984957 84.075811 27.787109 84.464844 C 28.545541 84.628596 29.700778 84.710231 31.267578 84.783203 C 32.834378 84.856173 34.767504 84.903394 36.875 84.935547 C 41.089993 84.999853 45.998547 85 49.998047 85 C 53.998047 85 58.909757 84.99985 63.125 84.935547 C 65.232621 84.903397 67.165651 84.856177 68.732422 84.783203 C 70.299193 84.710233 71.452613 84.628642 72.210938 84.464844 C 74.01311 84.075901 75.670357 83.223043 76.947266 81.947266 C 78.22446 80.670071 79.075984 79.012728 79.464844 77.210938 C 79.670916 76.258481 79.777254 74.612133 79.865234 72.376953 C 79.953215 70.14177 80 67.386223 80 64.5 L 80 63.5 L 79.980469 63.5 C 79.970329 61.014928 79.941709 58.574405 79.865234 56.623047 C 79.777634 54.387931 79.67029 52.740904 79.464844 51.789062 C 79.075901 49.986889 78.224996 48.331597 76.949219 47.054688 C 75.673246 45.777581 74.014962 44.926124 72.212891 44.537109 L 72.210938 44.537109 C 71.452242 44.373158 70.298493 44.291825 68.732422 44.21875 C 67.165479 44.145634 65.232695 44.096669 63.125 44.064453 C 58.90961 44.000021 53.998047 44 49.998047 44 z M 49.998047 46 C 53.998047 46 58.90214 46.000388 63.09375 46.064453 C 65.189555 46.096483 67.10749 46.143393 68.638672 46.214844 C 70.169854 46.286294 71.359787 46.399322 71.789062 46.492188 L 71.791016 46.492188 C 73.25224 46.807353 74.555606 47.490285 75.533203 48.46875 C 76.511426 49.447841 77.194708 50.753064 77.509766 52.212891 C 77.631319 52.77605 77.781036 54.503038 77.867188 56.701172 C 77.953338 58.899306 77.998047 61.635667 77.998047 64.5 L 77.998047 64.615234 C 77.996747 67.433843 77.952427 70.133236 77.867188 72.298828 C 77.780668 74.496898 77.631693 76.225519 77.509766 76.789062 C 77.194626 78.249272 76.512009 79.554398 75.533203 80.533203 C 74.554112 81.511426 73.248889 82.194708 71.789062 82.509766 C 71.359887 82.602466 70.169745 82.713847 68.638672 82.785156 C 67.107599 82.856466 65.189504 82.903575 63.09375 82.935547 C 58.902197 82.999494 53.998047 83 49.998047 83 C 45.998547 83 41.097507 82.999488 36.90625 82.935547 C 34.810621 82.903577 32.892435 82.856467 31.361328 82.785156 C 29.830222 82.713846 28.640506 82.602513 28.210938 82.509766 L 28.208984 82.509766 C 26.747889 82.194614 25.445811 81.512218 24.466797 80.533203 C 23.489124 79.55553 22.80531 78.248971 22.490234 76.789062 C 22.368646 76.225742 22.21921 74.497197 22.132812 72.298828 C 22.046415 70.100459 22 67.364275 22 64.5 C 22 61.635725 22.046411 58.899416 22.132812 56.701172 C 22.219213 54.502927 22.368552 52.775067 22.490234 52.210938 C 22.805392 50.750647 23.486588 49.444185 24.464844 48.466797 C 25.443935 47.488574 26.751111 46.805292 28.210938 46.490234 C 28.640127 46.397524 29.828397 46.286153 31.359375 46.214844 C 32.890353 46.143534 34.808669 46.096425 36.904297 46.064453 C 41.095554 46.000509 45.998047 46 49.998047 46 z M 26 51 L 26 55.064453 L 30 55.064453 L 30 77 L 34 77 L 34 55.064453 L 38 55.064453 L 38 51 L 26 51 z M 52 51 L 52 77 L 56 77 L 56 76.529297 C 56.565 76.819297 57.196 77 57.875 77 C 60.153 77 62 75.153 62 72.875 L 62 61.625 C 62 59.347 60.153 57.5 57.875 57.5 C 57.196 57.5 56.565 57.680703 56 57.970703 L 56 51 L 52 51 z M 69.5 57.5 C 66.462 57.5 64 59.962 64 63 L 64 71.5 C 64 74.538 66.462 77 69.5 77 C 72.538 77 75 74.538 75 71.5 L 75 70 L 71 70 L 71 72.5 C 71 73.328 70.328 74 69.5 74 C 68.672 74 68 73.328 68 72.5 L 68 68 L 75 68 L 75 63 C 75 59.962 72.538 57.5 69.5 57.5 z M 38 58 L 38 74.0625 C 38 75.6845 39.3145 77 40.9375 77 C 42.7085 77 44.121953 75.846 45.001953 75 L 45.001953 77 L 49.001953 77 L 49.001953 58 L 45 58 L 45 71.625 C 45 71.625 43.75 73 42.75 73 C 42.336 73 42 72.664 42 72.25 L 42 58 L 38 58 z M 57.1875 61 C 57.6355 61 58 61.3635 58 61.8125 L 58 73.1875 C 58 73.6355 57.6355 74 57.1875 74 C 56.3745 74 56 73.375 56 73.375 L 56 61.625 C 56 61.625 56.3745 61 57.1875 61 z M 69.5 61 C 70.328 61 71 61.672 71 62.5 L 71 65 L 68 65 L 68 62.5 C 68 61.672 68.672 61 69.5 61 z"/></svg>